<?xml version="1.0" standalone="no"?>
<!DOCTYPE svg PUBLIC "-//W3C//DTD SVG 20010904//EN"
 "http://www.w3.org/TR/2001/REC-SVG-20010904/DTD/svg10.dtd">
<svg version="1.0" xmlns="http://www.w3.org/2000/svg"
 width="256.000000pt" height="256.000000pt" viewBox="0 0 256.000000 256.000000"
 preserveAspectRatio="xMidYMid meet">
<metadata>
Created by potrace 1.14, written by Peter Selinger 2001-2017
</metadata>
<g transform="translate(0.000000,256.000000) scale(0.100000,-0.100000)"
fill="#000000" stroke="none">
<path d="M799 2413 c-24 -30 -51 -62 -60 -72 -8 -9 -76 -88 -149 -176 -180
-214 -234 -279 -240 -285 -3 -3 -52 -60 -108 -128 -96 -115 -112 -140 -94
-143 6 -2 146 -6 285 -8 l38 -1 -1 -261 c-1 -144 1 -264 4 -267 4 -3 42 -5 86
-5 52 0 77 -3 73 -10 -4 -6 -1 -7 8 -1 20 13 70 14 62 1 -4 -6 -1 -7 8 -1 20
12 113 12 121 -1 5 -6 8 -5 8 4 0 11 4 9 15 -5 9 -11 13 -13 10 -4 -4 11 2 15
20 16 14 1 25 -2 25 -8 0 -5 7 -16 15 -25 8 -8 12 -19 9 -25 -4 -6 -2 -8 3 -5
14 9 47 -29 38 -43 -3 -6 -1 -9 7 -8 7 2 12 -3 10 -10 -1 -8 2 -11 6 -8 5 3
40 -32 78 -77 38 -45 71 -84 74 -87 9 -8 371 -441 405 -484 17 -21 29 -43 27
-48 -1 -5 2 -7 8 -3 5 3 13 -1 16 -9 11 -29 23 -22 83 52 18 23 38 39 44 35 5
-3 7 -2 4 4 -3 5 4 21 16 36 12 14 36 43 52 64 17 20 113 134 214 253 101 118
205 239 230 269 25 29 58 68 73 85 30 34 35 52 16 58 -7 2 -80 4 -163 4 l-150
-1 -5 265 -5 265 -218 0 c-119 0 -217 3 -217 7 0 6 -218 268 -240 288 -3 3
-30 34 -60 70 -30 36 -62 73 -70 82 -8 9 -87 102 -175 207 -88 104 -167 191
-176 194 -10 3 -31 -15 -60 -50z"/>
<path d="M736 1038 c3 -5 10 -6 15 -3 13 9 11 12 -6 12 -8 0 -12 -4 -9 -9z"/>
<path d="M773 1031 c0 -11 5 -18 9 -15 4 3 5 11 1 19 -7 21 -12 19 -10 -4z"/>
<path d="M833 1025 c0 -8 4 -12 9 -9 5 3 6 10 3 15 -9 13 -12 11 -12 -6z"/>
<path d="M615 1021 c-3 -5 -2 -12 3 -15 5 -3 9 1 9 9 0 17 -3 19 -12 6z"/>
<path d="M653 1015 c0 -8 4 -12 9 -9 5 3 6 10 3 15 -9 13 -12 11 -12 -6z"/>
<path d="M936 978 c3 -5 10 -6 15 -3 13 9 11 12 -6 12 -8 0 -12 -4 -9 -9z"/>
<path d="M1495 300 c-3 -5 -1 -10 4 -10 6 0 11 5 11 10 0 6 -2 10 -4 10 -3 0
-8 -4 -11 -10z"/>
<path d="M1796 298 c3 -5 10 -6 15 -3 13 9 11 12 -6 12 -8 0 -12 -4 -9 -9z"/>
<path d="M1915 289 c-4 -6 -5 -12 -2 -15 2 -3 7 2 10 11 7 17 1 20 -8 4z"/>
<path d="M1716 281 c-3 -5 2 -15 12 -22 15 -12 16 -12 5 2 -7 9 -10 19 -6 22
3 4 4 7 0 7 -3 0 -8 -4 -11 -9z"/>
<path d="M1320 260 c8 -5 20 -10 25 -10 6 0 3 5 -5 10 -8 5 -19 10 -25 10 -5
0 -3 -5 5 -10z"/>
<path d="M1926 262 c-3 -5 1 -9 9 -9 8 0 12 4 9 9 -3 4 -7 8 -9 8 -2 0 -6 -4
-9 -8z"/>
<path d="M1235 251 c-3 -5 -2 -12 3 -15 5 -3 9 1 9 9 0 17 -3 19 -12 6z"/>
<path d="M1870 240 c0 -5 5 -10 11 -10 5 0 7 5 4 10 -3 6 -8 10 -11 10 -2 0
-4 -4 -4 -10z"/>
<path d="M1276 227 c3 -10 9 -15 12 -12 3 3 0 11 -7 18 -10 9 -11 8 -5 -6z"/>
<path d="M1667 226 c-4 -10 -1 -13 8 -9 8 3 12 9 9 14 -7 12 -11 11 -17 -5z"/>
<path d="M1370 219 c0 -5 5 -7 10 -4 6 3 10 8 10 11 0 2 -4 4 -10 4 -5 0 -10
-5 -10 -11z"/>
<path d="M1700 226 c0 -2 8 -10 18 -17 15 -13 16 -12 3 4 -13 16 -21 21 -21
13z"/>
<path d="M1564 198 l-19 -23 23 19 c21 18 27 26 19 26 -2 0 -12 -10 -23 -22z"/>
<path d="M1813 185 c0 -8 4 -12 9 -9 5 3 6 10 3 15 -9 13 -12 11 -12 -6z"/>
<path d="M1675 141 c-3 -5 -2 -12 3 -15 5 -3 9 1 9 9 0 17 -3 19 -12 6z"/>
</g>
</svg>
